:SAMPLES-PER-SECOND 30
:FULLY-SPECIFIED
:DEGREES
1
root  12.1942 40.8213 -1.67408 172.795 -83.05 -176.637
RightUpLeg  2.38212 -7.80992 -4.2085
RightLeg  4.85038 -4.74076 3.58036
RightFoot  -2.16323 0.0882723 -1.4181
RightToes  0.00048216 0.542163 -0.142577
Spine  0.906144 0.258612 0.237008
Spine1  4.7701 -0.0323758 1.42038
HEad  -1.27197 -0.47073 -0.678721
LeftShoulder1  1.33783 -3.4179 -12.1712
LeftArm  -20.8962 11.1099 -9.6233
LeftForeArm  5.63263 -0.856544 -0.312643
LeftHand  -0.25398 0.0180481 5.50724
RightShoulder  0.93834 1.36466 12.2114
RightArm  -27.6045 -1.94021 6.15107
RightForeArm  -4.97935 -0.0395225 0.793807
RightHand  -1.67276 4.75535 -19.3261
LeftUpLeg  9.9039 6.43184 3.59337
LeftLeg  0.56277 22.1885 -4.59619
LeftFoot  -5.82392 -0.0282312 1.25817
LeftToes  1.06246e-005 4.65855e-005 -8.18505e-006
2
root  12.1942 40.8213 -1.67408 172.898 -83.05 -176.751
RightUpLeg  2.39122 -7.82465 -4.22439
RightLeg  4.8498 -4.74076 3.58036
RightFoot  -2.15393 0.0883309 -1.41901
RightToes  0.00048216 0.542163 -0.142577
Spine  0.958704 0.257329 0.212618
Spine1  4.78133 -0.0440458 1.47095
HEad  -1.21793 -0.551465 -0.667191
LeftShoulder1  1.32849 -3.3547 -12.216
LeftArm  -20.8852 11.0468 -9.618
LeftForeArm  5.64151 -0.909607 -0.33496
LeftHand  -0.25398 0.0180481 5.50724
RightShoulder  0.93105 1.33534 12.174
RightArm  -27.5942 -1.8932 6.19902
RightForeArm  -5.06665 -0.0345691 0.814809
RightHand  -1.65707 4.68398 -19.28
LeftUpLeg  9.91729 6.42322 3.57842
LeftLeg  0.562474 22.1932 -4.59701
LeftFoot  -5.8239 -0.0275275 1.24723
LeftToes  1.06246e-005 4.65855e-005 -8.18505e-006
3
root  12.1944 40.8213 -1.67408 173.027 -83.05 -176.883
RightUpLeg  2.39269 -7.83774 -4.24219
RightLeg  4.8443 -4.74065 3.58122
RightFoot  -2.15277 0.0889512 -1.42865
RightToes  0.00048216 0.542163 -0.142577
Spine  1.03112 0.250648 0.180788
Spine1  4.80873 -0.0697682 1.54628
HEad  -1.07795 -0.734283 -0.668162
LeftShoulder1  1.32195 -3.29156 -12.3067
LeftArm  -20.8899 10.9861 -9.58665
LeftForeArm  5.71452 -0.956732 -0.346057
LeftHand  -0.25398 0.0180481 5.50724
RightShoulder  0.941268 1.38662 12.1821
RightArm  -27.5417 -1.88026 6.18112
RightForeArm  -5.04424 -0.0285278 0.840844
RightHand  -1.65278 4.71169 -19.182
LeftUpLeg  9.91549 6.41144 3.55813
LeftLeg  0.566784 22.2057 -4.59596
LeftFoot  -5.82387 -0.0263459 1.22886
LeftToes  1.06246e-005 4.65855e-005 -8.18505e-006
4
root  12.1959 40.8213 -1.67446 173.111 -83.0513 -176.953
RightUpLeg  2.38231 -7.83694 -4.24959
RightLeg  4.83068 -4.74052 3.58228
RightFoot  -2.16652 0.0875432 -1.40676
RightToes  0.00048216 0.542163 -0.142577
Spine  1.10775 0.241239 0.166682
Spine1  4.81935 -0.0933356 1.60005
HEad  -0.962048 -0.8229 -0.712034
LeftShoulder1  1.32696 -3.28473 -12.4092
LeftArm  -20.9439 10.9465 -9.54445
LeftForeArm  5.84386 -0.935212 -0.317294
LeftHand  -0.25398 0.0180481 5.50724
RightShoulder  0.959013 1.4664 12.2359
RightArm  -27.5157 -1.88949 6.11641
RightForeArm  -4.79816 -0.0385965 0.834357
RightHand  -1.66021 4.8269 -19.0588
LeftUpLeg  9.89122 6.40571 3.5442
LeftLeg  0.580603 22.2224 -4.58818
LeftFoot  -5.82368 -0.0270123 1.23922
LeftToes  1.06246e-005 4.65855e-005 -8.18505e-006
5
root  12.1995 40.8213 -1.67632 173.21 -83.0516 -177.02
RightUpLeg  2.34495 -7.82891 -4.24684
RightLeg  4.82416 -4.74147 3.5747
RightFoot  -2.17292 0.0848968 -1.36562
RightToes  0.00048216 0.542163 -0.142577
Spine  1.19398 0.241785 0.162206
Spine1  4.78284 -0.100026 1.63327
HEad  -0.951892 -0.729099 -0.745113
LeftShoulder1  1.33763 -3.31092 -12.4993
LeftArm  -20.9768 10.8962 -9.50434
LeftForeArm  5.88087 -0.865794 -0.293103
LeftHand  -0.25398 0.0180481 5.50724
RightShoulder  0.959375 1.45989 12.2718
RightArm  -27.5781 -1.837 6.1061
RightForeArm  -4.56233 -0.0896571 0.794475
RightHand  -1.65334 4.83871 -18.9621
LeftUpLeg  9.85597 6.4005 3.53078
LeftLeg  0.566894 22.2384 -4.59388
LeftFoot  -5.8182 -0.0283984 1.26077
LeftToes  1.06246e-005 4.65855e-005 -8.18505e-006
6
root  12.2034 40.8213 -1.67916 173.364 -83.0327 -177.11
RightUpLeg  2.2633 -7.81687 -4.23269
RightLeg  4.82714 -4.74279 3.56351
RightFoot  -2.1612 0.0841898 -1.35463
RightToes  0.00048216 0.542163 -0.142577
Spine  1.27315 0.256455 0.149642
Spine1  4.70607 -0.0896221 1.66947
HEad  -1.00879 -0.587156 -0.714244
LeftShoulder1  1.34792 -3.34001 -12.5734
LeftArm  -20.9039 10.8627 -9.45599
LeftForeArm  5.73995 -0.818663 -0.32346
LeftHand  -0.25398 0.0180481 5.50724
RightShoulder  0.951521 1.42109 12.2636
RightArm  -27.6555 -1.77741 6.14468
RightForeArm  -4.58827 -0.162906 0.761085
RightHand  -1.62535 4.69339 -18.9074
LeftUpLeg  9.80106 6.39289 3.51535
LeftLeg  0.523208 22.2599 -4.61608
LeftFoot  -5.79851 -0.0282375 1.25826
LeftToes  1.06246e-005 4.65855e-005 -8.18505e-006
7
root  12.2058 40.8213 -1.68126 173.496 -83.0034 -177.153
RightUpLeg  2.15652 -7.8006 -4.20979
RightLeg  4.82647 -4.7433 3.55867
RightFoot  -2.15251 0.0856298 -1.37702
RightToes  0.00048216 0.542163 -0.142577
Spine  1.34499 0.272278 0.125542
Spine1  4.60582 -0.0870593 1.72795
HEad  -1.03517 -0.548923 -0.65912
LeftShoulder1  1.3608 -3.3818 -12.6485
LeftArm  -20.7767 10.9149 -9.38677
LeftForeArm  5.56132 -0.841078 -0.379881
LeftHand  -0.25398 0.0180481 5.50724
RightShoulder  0.960416 1.48063 12.2064
RightArm  -27.6329 -1.84873 6.16502
RightForeArm  -4.76339 -0.20564 0.764477
RightHand  -1.59668 4.54 -18.8578
LeftUpLeg  9.71627 6.39349 3.5084
LeftLeg  0.494736 22.2847 -4.63956
LeftFoot  -5.78494 -0.0281681 1.25719
LeftToes  1.06246e-005 4.65855e-005 -8.18505e-006
